<?xml version="1.0" encoding="UTF-8" standalone="no"?>
<!-- Created with Inkscape (http://www.inkscape.org/) -->

<svg
   version="1.1"
   id="svg1"
   width="1024"
   height="1024"
   viewBox="0 0 1024 1024"
   sodipodi:docname="logo_natacion.svg"
   xml:space="preserve"
   inkscape:version="1.4.2 (f4327f4, 2025-05-13)"
   xmlns:inkscape="http://www.inkscape.org/namespaces/inkscape"
   xmlns:sodipodi="http://sodipodi.sourceforge.net/DTD/sodipodi-0.dtd"
   xmlns="http://www.w3.org/2000/svg"
   xmlns:svg="http://www.w3.org/2000/svg"><defs
     id="defs1" /><sodipodi:namedview
     id="namedview1"
     pagecolor="#ffffff"
     bordercolor="#000000"
     borderopacity="0.25"
     inkscape:showpageshadow="2"
     inkscape:pageopacity="0.0"
     inkscape:pagecheckerboard="0"
     inkscape:deskcolor="#d1d1d1"
     inkscape:zoom="2.8284271"
     inkscape:cx="484.7217"
     inkscape:cy="405.52574"
     inkscape:window-width="3840"
     inkscape:window-height="2036"
     inkscape:window-x="-12"
     inkscape:window-y="-12"
     inkscape:window-maximized="1"
     inkscape:current-layer="layer1" /><g
     inkscape:groupmode="layer"
     inkscape:label="Image"
     id="g1"
     style="opacity:1"><g
       id="g17"
       style="display:inline;opacity:1"><path
         style="display:inline;opacity:1;fill:#eff2f1"
         d="m 695.12044,441.93428 c -12.00453,-0.27272 -19.91719,-2.40693 -29.35093,-4.11276 -35.00356,-6.32944 -76.48368,-20.54188 -117.16389,-37.61899 -6.16213,-2.5868 -26.23034,-11.68948 -42.88388,-20.16481 -31.81357,-16.19057 -43.40562,-22.37061 -64.66059,-28.52756 -25.60378,-7.41669 -41.61215,-11.06239 -72.58231,-11.28953 -21.40981,-0.15703 -26.11552,-0.51558 -38.73411,1.62963 -21.54943,3.66347 -36.2901,7.92795 -54.93378,15.43537 -23.19283,9.33927 -38.89086,20.13152 -59.375,37.13787 -3.38356,2.8091 -6.36737,4.83591 -8.1939,6.67066 -3.13695,3.15108 -12.33221,11.35538 -12.79,11.50548 -0.43241,0.16943 7.77272,-8.8081 8.54982,-9.93729 2.28614,-3.32197 31.87817,-33.06497 48.18408,-48.4299 41.99599,-39.5725 95.14091,-77.25037 136.99119,-97.12191 37.02583,-17.58077 89.29627,-32.01689 132.16548,-36.50163 17.42593,-1.82301 59.54328,-0.71452 76.21595,2.00593 19.01567,3.10275 45.65844,10.82035 84.32995,24.42783 46.94627,16.51915 87.75018,21.23061 117.87822,13.61093 9.98477,-2.52525 15.84168,-5.10958 22.68372,-10.00905 4.13917,-2.964 5.81926,-3.69044 6.34839,-2.74493 1.08512,1.939 3.51112,15.58319 5.55867,31.26273 1.50689,11.53942 1.82547,20.94236 1.81258,53.5 -0.0164,41.44737 -0.34737,46.0725 -5.38397,71.50421 -1.72579,8.71418 -3.75075,14.67554 -3.75075,14.67554 -0.005,0.0168 -1.91772,0.38998 -3.43245,0.82313 -0.66581,0.1904 -1.61633,0.48355 -2.37668,0.78727 -10.72314,4.28332 -32.88515,11.40952 -41.03723,13.54572 -13.91029,3.6451 -33.41342,6.27885 -51.20161,7.65149 -12.69991,0.98001 -24.54206,0.4737 -32.86697,0.28457 z"
         id="path24"
         sodipodi:nodetypes="sssssssssscsssssssssssscsssss"
         sodipodi:insensitive="true" /><path
         style="display:inline;opacity:1;fill:#008800;fill-opacity:1"
         d="m 688.68595,559.03649 c -36.41945,-3.21384 -70.69891,-10.2257 -101.82434,-20.82816 -20.17237,-6.87144 -29.04109,-10.52411 -49.57279,-20.41707 -21.18371,-10.20711 -31.33339,-16.12354 -73.10287,-42.61293 -50.5745,-32.07337 -66.75749,-41.64509 -90.4645,-53.50692 -45.28151,-22.65663 -74.75651,-31.05559 -108.74609,-30.98741 -11.66531,0.0234 -22.44134,1.96774 -35.87871,6.47368 -7.2638,2.43576 -10.59968,4.03808 -27.76225,13.33493 -4.32679,2.34379 -7.70332,3.24305 -7.70332,3.24305 0,0 5.64827,-6.16833 19.13929,-17.19245 27.11624,-22.15791 40.35111,-30.42879 63.91558,-39.94288 18.80432,-7.59219 34.01609,-11.73088 55.5,-15.09996 10.52944,-1.65121 49.96909,-1.60153 63.5,0.08 17.33711,2.15453 33.65867,5.83508 49.25209,11.10646 21.98879,7.43334 29.31703,10.67123 63.24791,27.94532 37.90745,19.29855 50.12632,24.36411 81.3593,35.56775 23.49926,8.42946 58.07936,18.40373 77.6407,21.93604 4.95,0.89386 11.475,2.09214 14.5,2.66286 9.09228,1.71542 38.05963,1.70699 52.00929,0.41185 33.68438,-3.1274 47.90117,-6.00507 78.99071,-18.02831 9.57092,-3.70136 13.36313,-4.33085 13.36313,-4.33085 0,0 -0.27835,0.66672 -0.36705,1.13059 -0.55941,2.92617 -11.69094,37.04525 -16.45104,48.10482 -9.21191,21.40286 -20.99087,42.9864 -30.87536,56.57546 -9.45582,12.99975 -28.72047,33.42738 -28.72047,33.42738 0.0409,-0.006 -0.37407,0.0302 -1.40866,0.12855 -3.04589,0.28957 -11.32397,1.04662 -28.54056,1.01745 -14.57539,-0.0247 -28.525,0.0192 -31,-0.19924 z"
         id="path17"
         sodipodi:nodetypes="sssssssscssssssssssscssscssss" /></g></g><g
     inkscape:groupmode="layer"
     id="layer1"
     inkscape:label=" logo"
     style="display:inline"><path
       style="display:inline;fill:#e00502;stroke-width:2.19535"
       d="m 591.47577,541.05992 c -23.8211,-2.39849 -48.60804,-8.81276 -74.83615,-19.36585 -12.5768,-5.06036 -20.39219,-8.53723 -41.21029,-18.33352 -54.4451,-25.61998 -80.08088,-33.68828 -114.47365,-36.02802 -17.71042,-1.20486 -71.67932,-1.07952 -54.99796,5.58961 21.8098,8.71945 15.38863,2.95647 15.27205,2.82829 -0.538,-0.59159 -10.03907,-11.12931 -2.96973,-14.95346 9.95746,-5.38647 18.03254,-8.71843 27.54685,-11.36643 21.17104,-5.89235 37.88177,-6.6305 61.89599,-2.73412 19.68066,3.19324 38.17516,9.48436 73.8196,25.11061 26.42979,11.58662 45.66113,19.3597 55.95346,22.61574 22.80783,7.21538 37.18969,10.18815 54.84934,11.33753 9.04469,0.58869 23.33326,0.15079 31.00092,-0.95006 15.16587,-2.17738 31.45386,-7.54442 45.14455,-14.87555 16.78,-8.98541 27.82054,-17.92498 42.37247,-34.3092 7.64133,-8.60349 9.91476,-10.4509 13.66119,-11.10122 1.68509,-0.2925 2.52988,-0.0702 4.05869,1.06807 2.94841,2.19519 3.43078,3.67942 3.12768,9.62361 -0.65424,12.83016 -9.06709,30.76075 -20.53932,43.7761 -6.73781,7.64415 -11.46795,11.97086 -19.09009,17.46194 -17.36391,12.5092 -34.94878,19.62921 -57.93372,23.45703 -8.87446,1.47791 -32.9448,2.1263 -42.65188,1.1489 z m -6.64706,-42.32575 c -29.05532,-3.56893 -51.81219,-10.89992 -99.70575,-32.1195 -32.42073,-14.36424 -51.89394,-21.78551 -70.23275,-25.38238 -7.94947,-1.55915 -22.09686,-3.05578 -27.39581,-3.06438 -2.30405,-0.005 -7.39093,0.35883 -7.39093,0.009 0,-0.33501 3.82249,-1.23409 4.36939,-1.23409 0.54691,0 4.84672,-1.0721 9.55513,-2.38247 39.81396,-11.08027 66.25546,-24.94663 114.35965,-59.97215 35.58286,-25.90851 58.17475,-39.5865 75.94916,-45.98248 13.09277,-4.71132 16.03536,-5.26283 27.91098,-5.23119 17.28891,0.046 28.54613,2.83579 65.08571,16.12946 25.28129,9.19773 30.58482,10.94782 33.17673,10.94782 4.52376,0 -1.84523,3.22074 -9.16005,4.63217 -4.25448,0.8209 -7.4665,0.934 -17.92356,0.63114 -7.00709,-0.20305 -14.98355,-0.63268 -17.72546,-0.95497 -15.79659,-1.85674 -48.16843,-4.17022 -56.22296,-4.01803 -4.14035,0.0783 -5.20951,0.34819 -8.86275,2.23778 -8.8863,4.59638 -20.45937,14.04017 -37.98499,30.99634 -5.69927,5.51408 -13.73834,13.14689 -17.86465,16.96174 -8.15381,7.53842 -19.26732,15.95308 -22.63235,17.13617 -3.60181,1.26635 -3.38302,1.81411 0.72469,1.81411 11.35498,0 28.14801,5.9136 40.0442,14.10141 2.00584,1.38055 3.71533,2.57075 3.79889,2.64488 0.0836,0.0741 0.65972,2.16096 1.28038,4.63744 2.32669,9.28353 8.34432,18.91969 15.54956,24.89991 7.60142,6.30904 15.47808,9.50616 25.06781,10.17501 5.08812,0.35489 5.74544,0.55302 8.96117,2.70121 1.90863,1.27503 8.5982,5.13362 14.86569,8.5746 6.26749,3.44101 11.39543,6.40986 11.39543,6.59748 0,0.4076 -9.70859,2.6223 -17.44849,3.9803 -7.92044,1.38965 -32.05058,1.69941 -41.54407,0.53329 z m 66.82117,-7.78393 c -0.29732,-0.39134 -4.66803,-3.04129 -9.71265,-5.8888 -5.04464,-2.84749 -9.17733,-5.31433 -9.18374,-5.48183 -0.006,-0.16759 2.50047,-0.20972 5.57086,-0.0937 10.81601,0.40845 26.76462,-2.20088 37.6001,-6.15173 5.76414,-2.10173 18.17298,-8.65704 23.84283,-12.59567 l 3.60049,-2.50109 -4.15441,4.2975 c -4.59258,4.75075 -14.81457,12.84097 -21.45903,16.98377 -9.78536,6.10114 -25.06915,12.79417 -26.10445,11.43157 z m -44.4044,-21.1332 c -4.75663,-0.61204 -8.56674,-1.89374 -13.69986,-4.60859 -3.25163,-1.71975 -5.28946,-3.41482 -8.99086,-7.4786 -7.76606,-8.52645 -11.23526,-17.59102 -11.219,-29.31394 0.0104,-7.54475 1.23189,-12.98306 4.39988,-19.58994 4.15072,-8.65638 10.46835,-15.09012 18.51511,-18.85538 19.58984,-9.16651 42.97481,0.44016 51.52069,21.16495 2.63355,6.38668 3.4031,11.13211 3.09856,19.10764 -0.4443,11.63584 -3.79366,19.71961 -11.6543,28.1281 -7.83843,8.38474 -20.50806,12.92062 -31.97022,11.44576 z M 721.9842,427.32723 c -0.65375,-1.40908 0,0 0,0 z"
       id="path9"
       sodipodi:nodetypes="ssssssssssssssssssssssssscsssssssssssssssssssssssssssssccsscsssssssssssssssss" /><path
       id="path22"
       style="display:inline;opacity:1;fill:#e9ce05"
       d="M 266.18555 390.69141 C 252.11277 390.48568 242.67324 392.87079 228.29492 397.40039 C 221.10942 399.66404 209.335 406.20012 201.7168 410.28125 C 197.58594 412.49417 193.94683 413.6282 193.94727 413.62891 C 193.94727 413.62891 195.97023 415.19083 197.61133 415.88672 C 200.54725 417.13168 205.66286 419.20846 211.36523 421.11523 C 272.4 441.52419 303.71213 464.63588 333.36133 511.16211 C 337.21674 517.21211 342.09502 525.31211 344.20312 529.16211 C 367.62341 571.93407 386.13156 593.77977 415.04492 612.7793 C 454.08747 638.43492 495.6366 650.73511 557.68555 655.00391 C 560.16055 655.17418 569.97552 655.39218 579.49609 655.48828 L 596.80664 655.66211 L 610.49609 650.11328 C 630.89505 641.84515 666.37726 623.90603 681.68555 614.12109 C 694.09726 606.18762 706.67351 597.07379 720.68555 585.85938 C 726.97532 580.82539 749.66602 558.07422 749.66602 558.07422 C 749.66602 558.07422 744.25469 558.62746 738.18555 558.87695 C 726.44282 559.35966 714.79717 559.53451 690.31836 558.83789 C 683.45554 558.64259 677.63747 557.72356 672.68555 557.17188 C 631.79385 552.61613 601.93343 544.62923 567.18555 530.93945 C 553.68438 525.62033 521.95994 510.58633 512.68555 505.11328 C 500.74273 498.06552 488.77794 490.80993 475.55273 482.33008 C 420.81311 447.23169 398.98259 434.07109 371.44922 420.47852 C 326.49572 398.28604 299.75941 391.18223 266.18555 390.69141 z " /></g></svg>
