<?xml version="1.0" encoding="UTF-8" standalone="no"?>
<!-- Created with Inkscape (http://www.inkscape.org/) -->

<svg
   version="1.1"
   id="svg1"
   width="1024"
   height="1024"
   viewBox="0 0 1024 1024"
   sodipodi:docname="logo_subacuatico.svg"
   xml:space="preserve"
   inkscape:version="1.4.2 (f4327f4, 2025-05-13)"
   xmlns:inkscape="http://www.inkscape.org/namespaces/inkscape"
   xmlns:sodipodi="http://sodipodi.sourceforge.net/DTD/sodipodi-0.dtd"
   xmlns="http://www.w3.org/2000/svg"
   xmlns:svg="http://www.w3.org/2000/svg"><defs
     id="defs1" /><sodipodi:namedview
     id="namedview1"
     pagecolor="#ffffff"
     bordercolor="#000000"
     borderopacity="0.25"
     inkscape:showpageshadow="2"
     inkscape:pageopacity="0.0"
     inkscape:pagecheckerboard="0"
     inkscape:deskcolor="#d1d1d1"
     inkscape:zoom="2"
     inkscape:cx="365.25"
     inkscape:cy="338"
     inkscape:window-width="2987"
     inkscape:window-height="1556"
     inkscape:window-x="-12"
     inkscape:window-y="-12"
     inkscape:window-maximized="1"
     inkscape:current-layer="layer2" /><g
     inkscape:groupmode="layer"
     inkscape:label="Image"
     id="g1"
     style="opacity:1"><g
       id="g17"
       style="display:inline;opacity:1"><path
         style="display:inline;opacity:1;fill:#eff2f1"
         d="m 695.12044,441.93428 c -12.00453,-0.27272 -19.91719,-2.40693 -29.35093,-4.11276 -35.00356,-6.32944 -76.48368,-20.54188 -117.16389,-37.61899 -6.16213,-2.5868 -26.23034,-11.68948 -42.88388,-20.16481 -31.81357,-16.19057 -43.40562,-22.37061 -64.66059,-28.52756 -25.60378,-7.41669 -41.61215,-11.06239 -72.58231,-11.28953 -21.40981,-0.15703 -26.11552,-0.51558 -38.73411,1.62963 -21.54943,3.66347 -36.2901,7.92795 -54.93378,15.43537 -23.19283,9.33927 -38.89086,20.13152 -59.375,37.13787 -3.38356,2.8091 -6.36737,4.83591 -8.1939,6.67066 -3.13695,3.15108 -12.33221,11.35538 -12.79,11.50548 -0.43241,0.16943 7.77272,-8.8081 8.54982,-9.93729 2.28614,-3.32197 31.87817,-33.06497 48.18408,-48.4299 41.99599,-39.5725 95.14091,-77.25037 136.99119,-97.12191 37.02583,-17.58077 89.29627,-32.01689 132.16548,-36.50163 17.42593,-1.82301 59.54328,-0.71452 76.21595,2.00593 19.01567,3.10275 45.65844,10.82035 84.32995,24.42783 46.94627,16.51915 87.75018,21.23061 117.87822,13.61093 9.98477,-2.52525 15.84168,-5.10958 22.68372,-10.00905 4.13917,-2.964 5.81926,-3.69044 6.34839,-2.74493 1.08512,1.939 3.51112,15.58319 5.55867,31.26273 1.50689,11.53942 1.82547,20.94236 1.81258,53.5 -0.0164,41.44737 -0.34737,46.0725 -5.38397,71.50421 -1.72579,8.71418 -3.75075,14.67554 -3.75075,14.67554 -0.005,0.0168 -1.91772,0.38998 -3.43245,0.82313 -0.66581,0.1904 -1.61633,0.48355 -2.37668,0.78727 -10.72314,4.28332 -32.88515,11.40952 -41.03723,13.54572 -13.91029,3.6451 -33.41342,6.27885 -51.20161,7.65149 -12.69991,0.98001 -24.54206,0.4737 -32.86697,0.28457 z"
         id="path24"
         sodipodi:nodetypes="sssssssssscsssssssssssscsssss"
         sodipodi:insensitive="true" /><path
         style="display:inline;opacity:1;fill:#008800;fill-opacity:1"
         d="m 688.68595,559.03649 c -36.41945,-3.21384 -70.69891,-10.2257 -101.82434,-20.82816 -20.17237,-6.87144 -29.04109,-10.52411 -49.57279,-20.41707 -21.18371,-10.20711 -31.33339,-16.12354 -73.10287,-42.61293 -50.5745,-32.07337 -66.75749,-41.64509 -90.4645,-53.50692 -45.28151,-22.65663 -74.75651,-31.05559 -108.74609,-30.98741 -11.66531,0.0234 -22.44134,1.96774 -35.87871,6.47368 -7.2638,2.43576 -10.59968,4.03808 -27.76225,13.33493 -4.32679,2.34379 -7.70332,3.24305 -7.70332,3.24305 0,0 5.64827,-6.16833 19.13929,-17.19245 27.11624,-22.15791 40.35111,-30.42879 63.91558,-39.94288 18.80432,-7.59219 34.01609,-11.73088 55.5,-15.09996 10.52944,-1.65121 49.96909,-1.60153 63.5,0.08 17.33711,2.15453 33.65867,5.83508 49.25209,11.10646 21.98879,7.43334 29.31703,10.67123 63.24791,27.94532 37.90745,19.29855 50.12632,24.36411 81.3593,35.56775 23.49926,8.42946 58.07936,18.40373 77.6407,21.93604 4.95,0.89386 11.475,2.09214 14.5,2.66286 9.09228,1.71542 38.05963,1.70699 52.00929,0.41185 33.68438,-3.1274 47.90117,-6.00507 78.99071,-18.02831 9.57092,-3.70136 13.36313,-4.33085 13.36313,-4.33085 0,0 -0.27835,0.66672 -0.36705,1.13059 -0.55941,2.92617 -11.69094,37.04525 -16.45104,48.10482 -9.21191,21.40286 -20.99087,42.9864 -30.87536,56.57546 -9.45582,12.99975 -28.72047,33.42738 -28.72047,33.42738 0.0409,-0.006 -0.37407,0.0302 -1.40866,0.12855 -3.04589,0.28957 -11.32397,1.04662 -28.54056,1.01745 -14.57539,-0.0247 -28.525,0.0192 -31,-0.19924 z"
         id="path17"
         sodipodi:nodetypes="sssssssscssssssssssscssscssss" /></g></g><g
     inkscape:groupmode="layer"
     id="layer1"
     inkscape:label=" logo"
     style="display:inline"><path
       id="path22"
       style="display:inline;opacity:1;fill:#e9ce05"
       d="M 266.18555 390.69141 C 252.11277 390.48568 242.67324 392.87079 228.29492 397.40039 C 221.10942 399.66404 209.335 406.20012 201.7168 410.28125 C 197.58594 412.49417 193.94683 413.6282 193.94727 413.62891 C 193.94727 413.62891 195.97023 415.19083 197.61133 415.88672 C 200.54725 417.13168 205.66286 419.20846 211.36523 421.11523 C 272.4 441.52419 303.71213 464.63588 333.36133 511.16211 C 337.21674 517.21211 342.09502 525.31211 344.20312 529.16211 C 367.62341 571.93407 386.13156 593.77977 415.04492 612.7793 C 454.08747 638.43492 495.6366 650.73511 557.68555 655.00391 C 560.16055 655.17418 569.97552 655.39218 579.49609 655.48828 L 596.80664 655.66211 L 610.49609 650.11328 C 630.89505 641.84515 666.37726 623.90603 681.68555 614.12109 C 694.09726 606.18762 706.67351 597.07379 720.68555 585.85938 C 726.97532 580.82539 749.66602 558.07422 749.66602 558.07422 C 749.66602 558.07422 744.25469 558.62746 738.18555 558.87695 C 726.44282 559.35966 714.79717 559.53451 690.31836 558.83789 C 683.45554 558.64259 677.63747 557.72356 672.68555 557.17188 C 631.79385 552.61613 601.93343 544.62923 567.18555 530.93945 C 553.68438 525.62033 521.95994 510.58633 512.68555 505.11328 C 500.74273 498.06552 488.77794 490.80993 475.55273 482.33008 C 420.81311 447.23169 398.98259 434.07109 371.44922 420.47852 C 326.49572 398.28604 299.75941 391.18223 266.18555 390.69141 z " /><path
       style="fill:#e30802;stroke-width:2.18411"
       d="m 370.58758,506.4027 c -7.20778,-15.18385 -13.5315,-21.74803 -26.92596,-27.94979 -0.69986,-0.32405 0.83118,-1.25135 5.41383,-3.27897 10.5644,-4.67431 21.48188,-12.71385 37.87578,-27.89146 24.87426,-23.02882 37.62256,-32.35365 47.41356,-34.68098 l 2.54908,-0.60591 -2.03926,2.05926 c -7.155,7.22517 -13.87667,17.56576 -22.17694,34.1169 -13.48589,26.89158 -15.85389,31.02172 -23.27929,40.60225 -5.40275,6.9709 -9.98563,12.05956 -15.31199,17.00185 l -2.64937,2.45835 z m 180.01488,-44.1429 c -17.42035,-1.65361 -30.42557,-4.78209 -41.72399,-10.03691 -4.19342,-1.95034 -11.04178,-5.97472 -11.04178,-6.48862 0,-0.10616 1.56585,0.0223 3.47968,0.28482 8.65299,1.18792 24.34787,2.00798 30.67786,1.6029 34.18853,-2.18781 59.36713,-14.33932 75.79568,-36.57997 2.01134,-2.7229 3.9382,-5.62588 4.28193,-6.45109 l 0.62496,-1.50039 -1.47793,1.27439 c -16.19434,13.9638 -38.69382,27.03594 -51.94955,30.18253 -5.97071,1.41731 -20.68005,1.94783 -26.57353,0.95841 -10.89886,-1.8297 -24.35601,-6.83456 -43.23852,-16.08085 -12.68454,-6.21128 -25.74646,-11.61441 -32.74291,-13.54421 -7.13406,-1.96777 -19.94891,-2.15753 -25.05237,-0.371 -8.02168,2.8081 -17.06114,9.05845 -30.71421,21.23743 -20.2511,18.06468 -26.76054,23.78183 -27.07863,23.78288 -0.18566,6e-4 -0.49044,-1.25163 -0.67729,-2.78276 -1.24981,-10.24057 -4.79755,-23.40294 -8.76463,-32.51733 -1.0361,-2.38045 -1.84035,-4.42791 -1.78724,-4.54988 0.0531,-0.12205 3.93915,-0.18593 8.63562,-0.14185 16.73118,0.15646 26.31486,-2.82345 35.87462,-11.15497 4.06117,-3.53944 9.54949,-11.46045 12.47654,-18.00679 5.03877,-11.26922 6.94403,-13.65677 10.8379,-13.5813 2.67721,0.052 4.35374,1.10825 7.21391,4.54538 7.10284,8.53563 38.00332,18.06365 71.85191,22.15519 21.57317,2.6077 31.44531,0.81765 63.24892,-11.46865 18.98862,-7.33562 31.21026,-10.58151 44.7821,-11.89339 13.79358,-1.33334 28.862,0.93825 40.72561,6.13945 4.46007,1.95536 4.73175,2.18275 5.27746,4.417 1.1127,4.55578 5.67266,14.3108 8.71229,18.63795 5.41134,7.70352 12.58245,13.19488 21.08885,16.14904 5.16312,1.79308 16.17126,2.4675 22.09886,1.35388 11.0655,-2.07887 22.00792,-7.37606 30.77558,-14.89838 l 5.47692,-4.69901 -1.62023,3.05898 c -2.37335,4.48088 -8.23791,12.1199 -12.90232,16.80634 -15.86521,15.94 -37.1804,25.22691 -57.90043,25.22691 -6.00517,0 -20.1564,-2.80025 -21.24963,-4.20489 -0.18518,-0.23791 1.26876,-2.41053 3.23108,-4.82793 3.3249,-4.09603 6.27075,-8.65298 5.59372,-8.65298 -0.16242,0 -2.18536,1.52244 -4.49559,3.38322 -9.97262,8.03247 -30.24293,20.20822 -40.36008,24.24307 -10.85419,4.3288 -24.74113,7.69889 -37.25358,9.0408 -7.05898,0.75702 -25.9596,0.7308 -34.15756,-0.0473 z"
       id="path1"
       sodipodi:nodetypes="ssssscsssscscsscssscssssssssssscsscsssssssssscssssssssscc" /></g><g
     inkscape:groupmode="layer"
     id="layer2"
     inkscape:label=" logo 1"><path
       d="m 703.3424,407.75626 c -10.7934,-1.69446 -21.00827,-9.06665 -25.81785,-18.63304 -1.35974,-2.70457 -2.87376,-6.57889 -3.36451,-8.60964 -1.11457,-4.6123 -1.13467,-12.06416 -0.0453,-16.77526 3.89422,-16.83997 21.308,-28.51621 37.52712,-25.16258 12.0138,2.48412 23.00829,12.11432 26.74731,23.42827 2.58826,7.83193 2.57704,17.286 -0.0289,24.38607 -3.38198,9.21413 -11.7671,17.20031 -21.05654,20.05479 -3.68881,1.13347 -10.82488,1.80379 -13.96128,1.31139 z"
       style="fill:#e30802;stroke-width:2.10574"
       id="path1-4" /></g></svg>
