<?xml version="1.0" encoding="UTF-8" standalone="no"?>
<!-- Created with Inkscape (http://www.inkscape.org/) -->

<svg
   version="1.1"
   id="svg1"
   width="1024"
   height="1024"
   viewBox="0 0 1024 1024"
   sodipodi:docname="logo_lucha.svg"
   xml:space="preserve"
   inkscape:version="1.4.2 (f4327f4, 2025-05-13)"
   xmlns:inkscape="http://www.inkscape.org/namespaces/inkscape"
   xmlns:sodipodi="http://sodipodi.sourceforge.net/DTD/sodipodi-0.dtd"
   xmlns="http://www.w3.org/2000/svg"
   xmlns:svg="http://www.w3.org/2000/svg"><defs
     id="defs1" /><sodipodi:namedview
     id="namedview1"
     pagecolor="#ffffff"
     bordercolor="#000000"
     borderopacity="0.25"
     inkscape:showpageshadow="2"
     inkscape:pageopacity="0.0"
     inkscape:pagecheckerboard="0"
     inkscape:deskcolor="#d1d1d1"
     inkscape:zoom="2.8284271"
     inkscape:cx="516.71828"
     inkscape:cy="414.71813"
     inkscape:window-width="2987"
     inkscape:window-height="1556"
     inkscape:window-x="-12"
     inkscape:window-y="-12"
     inkscape:window-maximized="1"
     inkscape:current-layer="layer1" /><g
     inkscape:groupmode="layer"
     inkscape:label="Image"
     id="g1"
     style="opacity:1"><g
       id="g17"
       style="display:inline;opacity:1"><path
         style="display:inline;opacity:1;fill:#eff2f1"
         d="m 695.12044,441.93428 c -12.00453,-0.27272 -19.91719,-2.40693 -29.35093,-4.11276 -35.00356,-6.32944 -76.48368,-20.54188 -117.16389,-37.61899 -6.16213,-2.5868 -26.23034,-11.68948 -42.88388,-20.16481 -31.81357,-16.19057 -43.40562,-22.37061 -64.66059,-28.52756 -25.60378,-7.41669 -41.61215,-11.06239 -72.58231,-11.28953 -21.40981,-0.15703 -26.11552,-0.51558 -38.73411,1.62963 -21.54943,3.66347 -36.2901,7.92795 -54.93378,15.43537 -23.19283,9.33927 -38.89086,20.13152 -59.375,37.13787 -3.38356,2.8091 -6.36737,4.83591 -8.1939,6.67066 -3.13695,3.15108 -12.33221,11.35538 -12.79,11.50548 -0.43241,0.16943 7.77272,-8.8081 8.54982,-9.93729 2.28614,-3.32197 31.87817,-33.06497 48.18408,-48.4299 41.99599,-39.5725 95.14091,-77.25037 136.99119,-97.12191 37.02583,-17.58077 89.29627,-32.01689 132.16548,-36.50163 17.42593,-1.82301 59.54328,-0.71452 76.21595,2.00593 19.01567,3.10275 45.65844,10.82035 84.32995,24.42783 46.94627,16.51915 87.75018,21.23061 117.87822,13.61093 9.98477,-2.52525 15.84168,-5.10958 22.68372,-10.00905 4.13917,-2.964 5.81926,-3.69044 6.34839,-2.74493 1.08512,1.939 3.51112,15.58319 5.55867,31.26273 1.50689,11.53942 1.82547,20.94236 1.81258,53.5 -0.0164,41.44737 -0.34737,46.0725 -5.38397,71.50421 -1.72579,8.71418 -3.75075,14.67554 -3.75075,14.67554 -0.005,0.0168 -1.91772,0.38998 -3.43245,0.82313 -0.66581,0.1904 -1.61633,0.48355 -2.37668,0.78727 -10.72314,4.28332 -32.88515,11.40952 -41.03723,13.54572 -13.91029,3.6451 -33.41342,6.27885 -51.20161,7.65149 -12.69991,0.98001 -24.54206,0.4737 -32.86697,0.28457 z"
         id="path24"
         sodipodi:nodetypes="sssssssssscsssssssssssscsssss"
         sodipodi:insensitive="true" /><path
         style="display:inline;opacity:1;fill:#008800;fill-opacity:1"
         d="m 688.68595,559.03649 c -36.41945,-3.21384 -70.69891,-10.2257 -101.82434,-20.82816 -20.17237,-6.87144 -29.04109,-10.52411 -49.57279,-20.41707 -21.18371,-10.20711 -31.33339,-16.12354 -73.10287,-42.61293 -50.5745,-32.07337 -66.75749,-41.64509 -90.4645,-53.50692 -45.28151,-22.65663 -74.75651,-31.05559 -108.74609,-30.98741 -11.66531,0.0234 -22.44134,1.96774 -35.87871,6.47368 -7.2638,2.43576 -10.59968,4.03808 -27.76225,13.33493 -4.32679,2.34379 -7.70332,3.24305 -7.70332,3.24305 0,0 5.64827,-6.16833 19.13929,-17.19245 27.11624,-22.15791 40.35111,-30.42879 63.91558,-39.94288 18.80432,-7.59219 34.01609,-11.73088 55.5,-15.09996 10.52944,-1.65121 49.96909,-1.60153 63.5,0.08 17.33711,2.15453 33.65867,5.83508 49.25209,11.10646 21.98879,7.43334 29.31703,10.67123 63.24791,27.94532 37.90745,19.29855 50.12632,24.36411 81.3593,35.56775 23.49926,8.42946 58.07936,18.40373 77.6407,21.93604 4.95,0.89386 11.475,2.09214 14.5,2.66286 9.09228,1.71542 38.05963,1.70699 52.00929,0.41185 33.68438,-3.1274 47.90117,-6.00507 78.99071,-18.02831 9.57092,-3.70136 13.36313,-4.33085 13.36313,-4.33085 0,0 -0.27835,0.66672 -0.36705,1.13059 -0.55941,2.92617 -11.69094,37.04525 -16.45104,48.10482 -9.21191,21.40286 -20.99087,42.9864 -30.87536,56.57546 -9.45582,12.99975 -28.72047,33.42738 -28.72047,33.42738 0.0409,-0.006 -0.37407,0.0302 -1.40866,0.12855 -3.04589,0.28957 -11.32397,1.04662 -28.54056,1.01745 -14.57539,-0.0247 -28.525,0.0192 -31,-0.19924 z"
         id="path17"
         sodipodi:nodetypes="sssssssscssssssssssscssscssss" /></g></g><g
     inkscape:groupmode="layer"
     id="layer1"
     inkscape:label=" logo"
     style="display:inline"><path
       id="path22"
       style="display:inline;opacity:1;fill:#e9ce05"
       d="M 266.18555 390.69141 C 252.11277 390.48568 242.67324 392.87079 228.29492 397.40039 C 221.10942 399.66404 209.335 406.20012 201.7168 410.28125 C 197.58594 412.49417 193.94683 413.6282 193.94727 413.62891 C 193.94727 413.62891 195.97023 415.19083 197.61133 415.88672 C 200.54725 417.13168 205.66286 419.20846 211.36523 421.11523 C 272.4 441.52419 303.71213 464.63588 333.36133 511.16211 C 337.21674 517.21211 342.09502 525.31211 344.20312 529.16211 C 367.62341 571.93407 386.13156 593.77977 415.04492 612.7793 C 454.08747 638.43492 495.6366 650.73511 557.68555 655.00391 C 560.16055 655.17418 569.97552 655.39218 579.49609 655.48828 L 596.80664 655.66211 L 610.49609 650.11328 C 630.89505 641.84515 666.37726 623.90603 681.68555 614.12109 C 694.09726 606.18762 706.67351 597.07379 720.68555 585.85938 C 726.97532 580.82539 749.66602 558.07422 749.66602 558.07422 C 749.66602 558.07422 744.25469 558.62746 738.18555 558.87695 C 726.44282 559.35966 714.79717 559.53451 690.31836 558.83789 C 683.45554 558.64259 677.63747 557.72356 672.68555 557.17188 C 631.79385 552.61613 601.93343 544.62923 567.18555 530.93945 C 553.68438 525.62033 521.95994 510.58633 512.68555 505.11328 C 500.74273 498.06552 488.77794 490.80993 475.55273 482.33008 C 420.81311 447.23169 398.98259 434.07109 371.44922 420.47852 C 326.49572 398.28604 299.75941 391.18223 266.18555 390.69141 z " /><path
       style="fill:#d50000;stroke-width:1.66055"
       d="m 357.94975,523.52669 c 0,-1.50931 5.8782,-13.11573 9.54751,-18.85143 7.29599,-11.40477 16.20654,-21.65824 34.6998,-39.92943 6.58887,-6.50977 12.27172,-13.27275 15.37222,-18.29398 2.80858,-4.5485 3.55392,-6.32474 13.4249,-31.99275 3.64916,-9.48907 7.6814,-18.67609 11.42708,-26.03527 14.63076,-28.74535 37.66724,-51.08554 63.53556,-61.61514 10.31102,-4.19706 23.49254,-6.97595 33.09013,-6.97595 h 3.96519 v 4.23327 c 0,17.01931 14.77503,30.73983 30.88381,28.67962 2.07879,-0.26589 4.04434,-0.59024 4.36785,-0.72084 0.42083,-0.1698 0.73415,0.44841 1.10098,2.17263 1.09047,5.12542 5.38527,12.46814 9.21424,15.75339 3.08077,2.64332 6.44014,4.83903 8.51673,5.56662 1.11917,0.39214 2.03483,0.86989 2.03483,1.0617 0,0.5706 -11.20136,3.82355 -14.98329,4.35125 l -2.03309,0.2837 -6.72719,-6.98682 c -7.43592,-7.72292 -10.16555,-9.67126 -14.15651,-10.10454 -1.27795,-0.13874 -3.24096,-0.006 -4.37739,0.29769 -2.00722,0.53503 -2.08249,0.51793 -2.91716,-0.66234 -0.47123,-0.66634 -2.61654,-3.53371 -4.76737,-6.37189 -2.15082,-2.83822 -4.54224,-6.46935 -5.31427,-8.06925 -0.772,-1.59986 -1.47557,-2.83323 -1.56346,-2.74078 -0.28304,0.29769 2.04641,6.6916 4.17433,11.45775 5.42866,12.15932 16.22447,25.41681 22.63456,27.79572 3.95328,1.46713 14.31638,0.61247 24.84612,-2.0491 4.91908,-1.2434 15.22322,-4.87719 20.09628,-7.08703 6.55308,-2.9717 10.25115,-5.4332 14.00552,-9.32226 5.48137,-5.67802 7.90391,-11.58722 7.91772,-19.31338 l 0.008,-3.54231 1.60643,0.31043 c 6.54134,1.26404 14.71395,7.30475 18.61423,13.75853 3.49191,5.77801 4.77868,10.88333 4.76996,18.92527 -0.008,8.04572 -1.32977,13.33523 -4.91878,19.69547 -2.12401,3.76402 -9.24682,11.35735 -13.56605,14.46221 -7.86515,5.65384 -16.54015,9.33241 -26.4257,11.20561 l -5.569,1.05528 5.78321,-0.2277 c 15.24626,-0.60019 29.03156,-6.37747 38.13431,-15.9817 1.77152,-1.8691 4.16432,-4.75868 5.31733,-6.42129 2.11952,-3.05626 2.81392,-3.42583 2.81392,-1.49759 0,2.03261 2.89839,13.12002 4.6826,17.91279 3.70793,9.96025 9.42886,20.34697 15.82864,28.73813 6.69867,8.78307 13.47797,15.58873 29.18143,29.29493 13.77838,12.02588 24.09075,23.63014 28.4267,31.98775 1.33736,2.57782 3.70222,8.53048 3.70222,9.31903 0,0.15753 -1.20483,-0.91646 -2.6774,-2.38668 -9.28906,-9.27415 -21.08825,-16.23829 -47.65785,-28.12874 -20.78558,-9.30199 -32.9857,-16.86993 -44.94505,-27.88015 -4.04784,-3.72662 -11.13253,-11.49578 -13.89105,-15.23312 -1.71007,-2.31691 -2.77246,-2.6732 -9.91893,-3.32653 -10.02325,-0.91632 -20.79849,0.98429 -31.06787,5.47994 -7.18005,3.14323 -14.43609,7.88056 -21.21388,13.85006 -4.32813,3.81203 -13.10472,13.40065 -19.4687,21.27008 -8.54273,10.56354 -7.39766,9.08498 -18.42754,23.79464 -2.48643,3.31596 -4.49338,5.63207 -4.49023,5.18193 0.013,-1.8452 1.71678,-10.71853 3.1868,-16.59618 7.29861,-29.18243 21.45374,-58.22187 34.04311,-69.83998 6.76061,-6.23901 10.88263,-8.97517 14.90105,-9.89115 1.83657,-0.41863 4.59225,-1.13927 6.12372,-1.60143 1.53149,-0.46216 4.04857,-1.1439 5.59355,-1.51498 9.97379,-2.3955 27.74567,-10.60757 37.03078,-17.11126 4.38128,-3.06887 8.87108,-6.6537 8.63906,-6.89779 -0.12174,-0.12801 -1.34429,0.44978 -2.71668,1.28415 -12.29264,7.47335 -38.08337,17.16619 -56.25764,21.14312 -5.68501,1.244 -7.57058,1.45847 -13.11066,1.49137 l -6.47064,0.0383 -4.88153,-2.57999 c -6.41541,-3.39067 -11.44945,-7.38324 -17.73311,-14.06439 -5.61672,-5.97201 -9.68291,-11.39526 -14.64181,-19.52849 -5.1253,-8.40613 -10.06,-19.8957 -11.65501,-27.13668 -0.36089,-1.63831 -0.40771,-0.93516 -0.24381,3.66163 0.35109,9.84717 2.76519,17.55786 8.4818,27.09114 2.24086,3.73697 2.31521,3.95327 1.42942,4.15931 -2.24999,0.5233 -8.3296,1.15732 -15.08089,1.57273 -10.72139,0.65969 -24.42204,2.69695 -26.53798,3.94611 -0.32471,0.1917 1.47059,0.39359 3.98956,0.44863 2.51897,0.055 6.11899,0.40461 8.00007,0.7768 4.36982,0.86465 10.11112,2.58393 9.96129,2.98298 -0.0635,0.16903 -1.56117,1.51555 -3.32826,2.99235 -8.5826,7.17272 -14.58143,14.08595 -31.5903,36.40553 -12.34504,16.19956 -16.61155,21.29561 -22.55583,26.94146 -11.88629,11.28955 -17.72319,15.53643 -47.80953,34.78575 -16.37815,10.47881 -26.78164,18.56951 -35.87726,27.90145 -1.9438,1.99431 -3.53417,3.3407 -3.53417,2.99197 z m 135.79809,-14.17022 c 0,-0.11383 0.73866,-1.38755 1.64146,-2.83011 1.8585,-2.96962 7.00697,-12.50199 8.98551,-16.63663 1.99049,-4.1596 7.32387,-17.48057 8.7318,-21.80902 4.30793,-13.2441 5.31556,-25.1135 2.48671,-29.29231 -1.06228,-1.5692 -4.49683,-4.05383 -7.43176,-5.3763 -5.38238,-2.42526 -19.292,-4.9768 -27.15818,-4.98181 -2.17941,-0.002 -3.96255,-0.1767 -3.96255,-0.38954 0,-0.60318 6.61965,-9.75682 10.31066,-14.25753 4.68868,-5.7173 9.5664,-10.52339 15.48309,-15.25581 l 1.59002,-1.27177 5.47835,1.86256 c 15.87477,5.39715 31.21243,16.77216 35.78769,26.54162 1.1869,2.5344 1.41333,3.5569 1.54228,6.96455 0.25441,6.72293 -1.59579,13.75263 -6.14334,23.34136 -8.00462,16.87811 -23.93185,36.28531 -39.41661,48.02885 -3.56285,2.70201 -7.92513,5.65341 -7.92513,5.36189 z m 107.5728,-137.96613 c -5.86386,-1.65876 -12.49296,-7.34008 -14.95679,-12.81838 -1.72577,-3.83724 -2.20352,-6.15171 -2.21628,-10.73686 -0.0198,-7.10501 2.15985,-12.7358 6.83225,-17.65055 7.15867,-7.52991 17.51991,-9.35025 26.78552,-4.70591 9.59694,4.81042 15.04339,16.06777 12.91095,26.68581 -1.78884,8.9072 -8.33929,16.24268 -17.05124,19.09477 -3.12274,1.02233 -8.93506,1.08427 -12.30441,0.13108 z m -36.24763,-24.43101 c -3.97982,-1.24317 -6.27087,-2.58263 -9.22161,-5.39139 -5.38285,-5.12384 -7.90587,-10.92532 -7.88471,-18.13037 0.0164,-5.62788 1.15238,-9.5539 3.99648,-13.81382 2.72011,-4.07413 5.01274,-6.14899 9.13824,-8.27014 11.57919,-5.95354 25.80809,-0.96472 31.49984,11.04422 1.06864,2.25471 2.24547,6.37139 2.24547,7.85477 0,0.20653 -1.2621,1.24046 -2.80472,2.29765 -4.05552,2.77927 -7.59161,7.05209 -9.85654,11.90994 -1.84231,3.95146 -3.18898,8.3726 -3.18898,10.4696 0,1.56321 -2.4527,2.45983 -7.28254,2.6622 -3.03785,0.12724 -4.72158,-0.0329 -6.64093,-0.63266 z"
       id="path1" /></g></svg>
