<?xml version="1.0" encoding="UTF-8" standalone="no"?>
<!-- Created with Inkscape (http://www.inkscape.org/) -->

<svg
   version="1.1"
   id="svg1"
   width="1024"
   height="1024"
   viewBox="0 0 1024 1024"
   sodipodi:docname="logo_pesas.svg"
   xml:space="preserve"
   inkscape:version="1.4.2 (f4327f4, 2025-05-13)"
   xmlns:inkscape="http://www.inkscape.org/namespaces/inkscape"
   xmlns:sodipodi="http://sodipodi.sourceforge.net/DTD/sodipodi-0.dtd"
   xmlns="http://www.w3.org/2000/svg"
   xmlns:svg="http://www.w3.org/2000/svg"><defs
     id="defs1" /><sodipodi:namedview
     id="namedview1"
     pagecolor="#ffffff"
     bordercolor="#000000"
     borderopacity="0.25"
     inkscape:showpageshadow="2"
     inkscape:pageopacity="0.0"
     inkscape:pagecheckerboard="0"
     inkscape:deskcolor="#d1d1d1"
     inkscape:zoom="2.8284271"
     inkscape:cx="484.7217"
     inkscape:cy="405.52574"
     inkscape:window-width="3840"
     inkscape:window-height="2036"
     inkscape:window-x="-12"
     inkscape:window-y="-12"
     inkscape:window-maximized="1"
     inkscape:current-layer="layer1" /><g
     inkscape:groupmode="layer"
     inkscape:label="Image"
     id="g1"
     style="opacity:1"><g
       id="g17"
       style="display:inline;opacity:1"><path
         style="display:inline;opacity:1;fill:#eff2f1"
         d="m 695.12044,441.93428 c -12.00453,-0.27272 -19.91719,-2.40693 -29.35093,-4.11276 -35.00356,-6.32944 -76.48368,-20.54188 -117.16389,-37.61899 -6.16213,-2.5868 -26.23034,-11.68948 -42.88388,-20.16481 -31.81357,-16.19057 -43.40562,-22.37061 -64.66059,-28.52756 -25.60378,-7.41669 -41.61215,-11.06239 -72.58231,-11.28953 -21.40981,-0.15703 -26.11552,-0.51558 -38.73411,1.62963 -21.54943,3.66347 -36.2901,7.92795 -54.93378,15.43537 -23.19283,9.33927 -38.89086,20.13152 -59.375,37.13787 -3.38356,2.8091 -6.36737,4.83591 -8.1939,6.67066 -3.13695,3.15108 -12.33221,11.35538 -12.79,11.50548 -0.43241,0.16943 7.77272,-8.8081 8.54982,-9.93729 2.28614,-3.32197 31.87817,-33.06497 48.18408,-48.4299 41.99599,-39.5725 95.14091,-77.25037 136.99119,-97.12191 37.02583,-17.58077 89.29627,-32.01689 132.16548,-36.50163 17.42593,-1.82301 59.54328,-0.71452 76.21595,2.00593 19.01567,3.10275 45.65844,10.82035 84.32995,24.42783 46.94627,16.51915 87.75018,21.23061 117.87822,13.61093 9.98477,-2.52525 15.84168,-5.10958 22.68372,-10.00905 4.13917,-2.964 5.81926,-3.69044 6.34839,-2.74493 1.08512,1.939 3.51112,15.58319 5.55867,31.26273 1.50689,11.53942 1.82547,20.94236 1.81258,53.5 -0.0164,41.44737 -0.34737,46.0725 -5.38397,71.50421 -1.72579,8.71418 -3.75075,14.67554 -3.75075,14.67554 -0.005,0.0168 -1.91772,0.38998 -3.43245,0.82313 -0.66581,0.1904 -1.61633,0.48355 -2.37668,0.78727 -10.72314,4.28332 -32.88515,11.40952 -41.03723,13.54572 -13.91029,3.6451 -33.41342,6.27885 -51.20161,7.65149 -12.69991,0.98001 -24.54206,0.4737 -32.86697,0.28457 z"
         id="path24"
         sodipodi:nodetypes="sssssssssscsssssssssssscsssss"
         sodipodi:insensitive="true" /><path
         style="display:inline;opacity:1;fill:#008800;fill-opacity:1"
         d="m 688.68595,559.03649 c -36.41945,-3.21384 -70.69891,-10.2257 -101.82434,-20.82816 -20.17237,-6.87144 -29.04109,-10.52411 -49.57279,-20.41707 -21.18371,-10.20711 -31.33339,-16.12354 -73.10287,-42.61293 -50.5745,-32.07337 -66.75749,-41.64509 -90.4645,-53.50692 -45.28151,-22.65663 -74.75651,-31.05559 -108.74609,-30.98741 -11.66531,0.0234 -22.44134,1.96774 -35.87871,6.47368 -7.2638,2.43576 -10.59968,4.03808 -27.76225,13.33493 -4.32679,2.34379 -7.70332,3.24305 -7.70332,3.24305 0,0 5.64827,-6.16833 19.13929,-17.19245 27.11624,-22.15791 40.35111,-30.42879 63.91558,-39.94288 18.80432,-7.59219 34.01609,-11.73088 55.5,-15.09996 10.52944,-1.65121 49.96909,-1.60153 63.5,0.08 17.33711,2.15453 33.65867,5.83508 49.25209,11.10646 21.98879,7.43334 29.31703,10.67123 63.24791,27.94532 37.90745,19.29855 50.12632,24.36411 81.3593,35.56775 23.49926,8.42946 58.07936,18.40373 77.6407,21.93604 4.95,0.89386 11.475,2.09214 14.5,2.66286 9.09228,1.71542 38.05963,1.70699 52.00929,0.41185 33.68438,-3.1274 47.90117,-6.00507 78.99071,-18.02831 9.57092,-3.70136 13.36313,-4.33085 13.36313,-4.33085 0,0 -0.27835,0.66672 -0.36705,1.13059 -0.55941,2.92617 -11.69094,37.04525 -16.45104,48.10482 -9.21191,21.40286 -20.99087,42.9864 -30.87536,56.57546 -9.45582,12.99975 -28.72047,33.42738 -28.72047,33.42738 0.0409,-0.006 -0.37407,0.0302 -1.40866,0.12855 -3.04589,0.28957 -11.32397,1.04662 -28.54056,1.01745 -14.57539,-0.0247 -28.525,0.0192 -31,-0.19924 z"
         id="path17"
         sodipodi:nodetypes="sssssssscssssssssssscssscssss" /></g></g><g
     inkscape:groupmode="layer"
     id="layer1"
     inkscape:label=" logo"
     style="display:inline"><path
       id="path22"
       style="display:inline;opacity:1;fill:#e9ce05"
       d="M 266.18555 390.69141 C 252.11277 390.48568 242.67324 392.87079 228.29492 397.40039 C 221.10942 399.66404 209.335 406.20012 201.7168 410.28125 C 197.58594 412.49417 193.94683 413.6282 193.94727 413.62891 C 193.94727 413.62891 195.97023 415.19083 197.61133 415.88672 C 200.54725 417.13168 205.66286 419.20846 211.36523 421.11523 C 272.4 441.52419 303.71213 464.63588 333.36133 511.16211 C 337.21674 517.21211 342.09502 525.31211 344.20312 529.16211 C 367.62341 571.93407 386.13156 593.77977 415.04492 612.7793 C 454.08747 638.43492 495.6366 650.73511 557.68555 655.00391 C 560.16055 655.17418 569.97552 655.39218 579.49609 655.48828 L 596.80664 655.66211 L 610.49609 650.11328 C 630.89505 641.84515 666.37726 623.90603 681.68555 614.12109 C 694.09726 606.18762 706.67351 597.07379 720.68555 585.85938 C 726.97532 580.82539 749.66602 558.07422 749.66602 558.07422 C 749.66602 558.07422 744.25469 558.62746 738.18555 558.87695 C 726.44282 559.35966 714.79717 559.53451 690.31836 558.83789 C 683.45554 558.64259 677.63747 557.72356 672.68555 557.17188 C 631.79385 552.61613 601.93343 544.62923 567.18555 530.93945 C 553.68438 525.62033 521.95994 510.58633 512.68555 505.11328 C 500.74273 498.06552 488.77794 490.80993 475.55273 482.33008 C 420.81311 447.23169 398.98259 434.07109 371.44922 420.47852 C 326.49572 398.28604 299.75941 391.18223 266.18555 390.69141 z " /><path
       style="fill:#e50301;stroke-width:2.69634"
       d="m 506.67046,591.83715 c 0,0 1.83442,-2.30683 3.14526,-3.88435 3.64335,-4.38456 10.37438,-14.21735 14.06835,-20.55126 7.30896,-12.53242 13.45353,-27.67535 16.99013,-41.87123 4.11456,-16.516 4.76308,-38.3574 1.60125,-53.93063 -2.74537,-13.52189 -8.97005,-26.10296 -17.34517,-35.05729 -2.73604,-2.92522 -11.01567,-9.21025 -11.01567,-9.21025 0,0 0.3176,0.70388 1.3402,1.5642 1.92698,1.62112 7.88739,9.0954 10.22675,12.82417 2.07135,3.30158 5.47833,10.42919 7.32765,15.32994 3.39523,8.99739 5.40266,18.95457 6.15184,30.51446 0.33987,5.24373 -1.27977,21.03277 -1.27977,21.03277 0,0 -0.54141,-1.09669 -0.73997,-3.52662 -0.93959,-11.49907 -7.24545,-28.07115 -15.36599,-40.38257 -5.34558,-8.10434 -9.77133,-13.19125 -24.56092,-28.23016 -15.56271,-15.82505 -22.35177,-23.8458 -29.13338,-34.4187 -10.42278,-16.24974 -17.23437,-35.85034 -19.68174,-56.6349 -0.33266,-2.82516 -0.96603,-5.56436 -1.49511,-6.46609 -1.825,-3.11039 -3.22141,-7.97631 -2.9623,-10.32242 0.63892,-5.7856 7.57986,-11.20279 15.53015,-12.12084 3.58576,-0.41404 6.43459,0.26361 9.19443,2.18716 l 1.98619,1.38431 8.94171,-0.86561 c 29.42785,-2.8488 51.03083,-3.66358 88.14458,-3.32443 32.06625,0.29303 47.63665,1.05294 72.89429,3.55758 l 6.29908,0.62462 2.57858,-1.65398 c 5.38698,-3.45536 12.37949,-2.50434 19.44412,2.64449 2.23346,1.6278 3.96128,4.31647 4.52692,7.04437 0.43405,2.09327 -0.82854,7.29139 -2.48404,10.22681 -0.67697,1.20033 -1.38465,3.47313 -1.5726,5.05067 -2.13607,17.92729 -5.86417,32.01338 -13.80224,52.14955 -5.22257,13.24791 -14.15793,29.0465 -22.96491,40.60436 -4.08153,5.35636 -17.59581,19.36755 -17.59581,19.36755 0,0 -0.33772,-2.6401 -0.3591,-5.8668 -0.0239,-3.67503 -0.35936,-7.13311 -0.89676,-9.25649 -1.11378,-4.40057 -4.36902,-11.13788 -6.74964,-13.96951 -2.07689,-2.47035 -6.9147,-6.01929 -9.84187,-7.2198 l -1.88918,-0.7748 2.6577,2.50776 c 3.78467,3.57113 7.33914,9.51763 9.30392,15.56502 1.39855,4.30474 1.70505,6.14837 1.94049,11.67233 0.73952,17.35169 -3.86303,35.77684 -14.14454,56.62371 -17.8303,36.15288 -45.69591,64.47993 -83.74545,85.13212 -3.45467,1.87511 -4.66743,1.93078 -4.66743,1.93078 z m 68.00856,-174.36088 c 16.27369,-3.34049 30.76321,-11.58504 44.34375,-25.23166 11.20136,-11.25586 21.19586,-25.99447 27.42683,-40.4455 4.7586,-11.03633 6.02543,-16.20203 4.4546,-18.1647 -0.83181,-1.03935 -1.89153,-1.22065 -12.91364,-2.20922 -33.37184,-2.99317 -43.18665,-3.41503 -79.45357,-3.41503 -32.91857,0 -38.85217,0.20733 -66.93517,2.33843 -21.75614,1.65102 -24.19349,1.98824 -25.1511,3.4799 -0.69156,1.07724 -0.72318,1.66847 -0.2123,3.97018 1.61462,7.27443 7.41097,19.30866 13.48493,27.99697 16.99124,24.30473 48.45392,46.66152 73.70408,52.37279 4.57422,1.03463 14.398,0.71466 21.25159,-0.69216 z m -17.86583,-4.28134 c -10.17127,-1.56607 -19.3604,-8.40376 -24.04928,-17.89514 -9.1969,-18.61669 0.63808,-40.61799 20.6635,-46.2252 3.35798,-0.94024 4.97348,-1.09252 9.43474,-0.88916 9.41894,0.42931 16.9159,3.907 22.97775,10.65891 5.53942,6.16999 8.20849,13.28063 8.20849,21.86807 0,5.50822 -0.89618,9.4498 -3.36135,14.78382 -2.5812,5.58512 -8.65679,11.64199 -14.57775,14.53289 -6.19,3.02227 -12.98645,4.13733 -19.2961,3.16581 z m 147.94468,-24.83094 c -1.11485,-0.17073 -1.36504,-0.42102 -1.0943,-1.09522 2.01087,-5.00746 7.46054,-23.25741 9.43005,-31.57938 4.61835,-19.51497 6.65729,-35.68572 7.02135,-55.68577 l 0.26244,-14.42474 2.62094,0.77965 c 1.44152,0.42882 4.80531,1.54308 7.47505,2.47616 l 4.8541,1.69654 0.70142,4.38688 c 0.42976,2.68774 0.71369,8.72959 0.7329,15.59901 0.0743,26.43557 -5.78332,54.64074 -15.3323,73.82861 l -1.85535,3.72829 -4.89727,0.33102 c -5.09028,0.34408 -7.46708,0.33426 -9.91917,-0.041 z m -306.99811,-1.05662 c -1.0177,-1.23664 -4.50209,-9.16045 -6.79022,-15.44153 -3.58172,-9.83209 -6.90176,-23.90908 -8.74981,-37.09916 -1.07082,-7.64276 -1.5533,-31.58563 -0.78218,-38.81607 0.31911,-2.99219 0.63409,-5.49492 0.69997,-5.56157 0.0659,-0.0668 3.45379,-1.17752 7.52864,-2.4686 l 7.40888,-2.34741 0.32321,14.1669 c 0.70887,31.07088 5.08357,54.70397 15.70087,84.81944 0.5542,1.57194 0.89828,3.03865 0.76464,3.25935 -0.13363,0.22073 -3.64272,0.40127 -7.79796,0.40127 -6.56849,0 -7.65306,-0.11912 -8.30604,-0.91262 z m 18.42107,-5.14269 c -6.25064,-13.80856 -11.74529,-35.98704 -14.32671,-57.82791 -0.74165,-6.27498 -0.96142,-33.64558 -0.29578,-36.83757 0.39017,-1.87099 0.46472,-1.9195 5.36503,-3.4922 8.02815,-2.57653 10.88049,-3.22504 11.09301,-2.52215 0.10158,0.33593 0.44716,2.9575 0.76803,5.82574 0.52453,4.68873 1.38274,10.85498 3.88301,27.89999 1.66652,11.36093 1.22519,10.09679 3.53835,10.13528 1.71183,0.0284 2.06366,0.22154 2.20082,1.20724 0.0898,0.64536 0.46759,1.17337 0.83952,1.17337 0.57774,0 6.07139,-1.03476 9.85502,-1.85624 1.07786,-0.2341 1.14965,-0.0778 1.14965,2.50163 0,1.51316 0.22598,3.55549 0.50222,4.53847 0.27621,0.98301 0.41727,1.87394 0.31346,1.97991 -0.10381,0.10594 -2.56355,0.5972 -5.46611,1.09163 l -5.27734,0.89898 0.1484,2.46301 c 0.14396,2.38936 0.10519,2.46325 -1.29532,2.47099 -2.69084,0.0137 -2.72987,0.23355 -1.39461,7.81761 0.68141,3.87037 1.80756,10.55713 2.50257,14.85947 0.69497,4.30234 1.81427,10.6385 2.48728,14.08038 0.67302,3.44186 1.07921,6.4114 0.90261,6.59899 -0.38645,0.41048 -9.89802,1.48418 -13.148,1.48418 h -2.31227 z m 271.3724,3.77807 c -2.8974,-0.44684 -3.80748,-0.78181 -3.731,-1.37324 0.0557,-0.43025 1.025,-5.82773 2.15414,-11.99442 2.32406,-12.69238 4.52122,-25.96753 4.74665,-28.67907 0.14639,-1.76105 0.078,-1.83787 -2.03987,-2.29472 l -2.19139,-0.47263 0.32188,-2.191 0.32194,-2.19098 -2.84726,-0.34154 c -1.56602,-0.18795 -4.01768,-0.59772 -5.44814,-0.91083 l -2.60082,-0.56929 0.27824,-1.90443 c 0.15304,-1.0474 0.42697,-3.02926 0.60873,-4.40406 l 0.3305,-2.49969 2.36567,0.34062 c 1.30119,0.18739 3.81368,0.6405 5.58342,1.00706 l 3.21773,0.66645 0.30252,-1.5437 c 0.28356,-1.44704 0.43405,-1.53319 2.40279,-1.37564 l 2.10027,0.168 2.41391,-16.68783 c 1.32759,-9.17834 2.69623,-19.09327 3.04141,-22.0332 0.57658,-4.91102 0.7163,-5.34533 1.7189,-5.34533 0.88015,0 5.90071,1.42409 14.10745,4.00162 1.26773,0.39815 1.46702,2.01142 1.7991,14.56493 0.54913,20.7632 -1.99662,40.45013 -8.07837,62.47268 -2.0631,7.47078 -5.47539,16.91463 -7.81212,21.62116 l -1.33147,2.6817 -3.95133,-0.061 c -2.17316,-0.0336 -5.67574,-0.32681 -7.78348,-0.65186 z m -307.16962,-2.24288 c -1.83615,-0.22645 -1.91945,-0.33776 -4.15409,-5.54758 -7.54341,-17.5865 -11.44,-36.29413 -11.91516,-57.20525 -0.14013,-6.16667 -0.0691,-13.08278 0.15785,-15.3691 l 0.41262,-4.15695 4.34313,-1.93248 c 2.38872,-1.06285 5.17057,-2.08645 6.1819,-2.2746 l 1.83878,-0.34212 0.30397,12.95023 c 0.55001,23.43363 3.62798,41.5452 10.90945,64.19385 1.59185,4.95136 2.74086,9.15902 2.55336,9.35041 -0.41095,0.41943 -8.00469,0.65767 -10.63181,0.33359 z m 345.92317,0.10654 c -0.18393,-0.19504 0.79918,-3.79909 2.18499,-8.0092 7.76658,-23.59543 11.0398,-42.20707 11.54976,-65.67114 0.15725,-7.24226 0.42574,-13.16646 0.59636,-13.16485 1.00697,0.011 4.92578,1.30583 8.31556,2.75094 l 3.9176,1.67015 0.40892,4.17632 c 1.60552,16.39779 -1.59481,42.90445 -7.26259,60.15172 -1.88613,5.73973 -6.33329,16.63435 -7.03077,17.22417 -0.7039,0.59519 -12.19507,1.38533 -12.67983,0.87189 z M 359.50952,353.11677 c -1.71328,-3.95304 -2.63472,-8.2995 -2.91386,-13.74453 l -0.27185,-5.30287 2.60293,-1.34622 c 1.43159,-0.74039 2.69902,-1.34621 2.8165,-1.34621 0.11747,0 0.36958,1.34939 0.56021,2.99862 0.19063,1.64923 0.92071,6.16666 1.62236,10.03879 0.70166,3.8721 1.40155,7.7685 1.55532,8.65868 0.25725,1.48941 0.14782,1.64541 -1.37189,1.95562 -3.12958,0.63882 -3.57435,0.45395 -4.59972,-1.91188 z m 393.57377,1.89246 c -0.63228,-0.13059 -1.14964,-0.47218 -1.14964,-0.75898 0,-0.2868 0.66764,-4.20123 1.48357,-8.69878 0.816,-4.49752 1.64228,-9.40935 1.83628,-10.91517 0.19694,-1.52844 0.61375,-2.73279 0.94352,-2.7264 0.3249,0.005 1.56792,0.46418 2.76227,1.01751 l 2.17154,1.00602 -0.008,4.06709 c -0.008,4.07314 -1.1117,9.59202 -2.8996,14.497 -0.83514,2.2912 -1.13485,2.61609 -2.47045,2.67836 -0.83601,0.0391 -2.0374,-0.0362 -2.66968,-0.16663 z"
       id="path1"
       sodipodi:nodetypes="cssssscsssscssssssssscssscsssscssccssscssssscssssssssssssssssssssscssccsscssscsccsssssscsssssssssssscsscsssscscssssscscssssccccscsscsscsscsssssssccccsssscsscssssscsscscssscsscssssssscssscscssscc" /></g></svg>
